<svg xmlns="http://www.w3.org/2000/svg" width="29.58" height="34.467" viewBox="0 0 29.58 34.467"><defs><style>.a{fill:#ffa200;}</style></defs><path class="a" d="M91.3,93.164V67.976a1.241,1.241,0,0,0-1.137-1.325H68.551A2.485,2.485,0,0,1,70.827,64H91.3a2.485,2.485,0,0,1,2.276,2.651V90.512A2.485,2.485,0,0,1,91.3,93.164ZM89.029,71.954V95.815a2.485,2.485,0,0,1-2.276,2.651H66.276A2.485,2.485,0,0,1,64,95.815V71.954A2.485,2.485,0,0,1,66.276,69.3H86.753A2.485,2.485,0,0,1,89.029,71.954Zm-4.551,5.3H68.551a1.34,1.34,0,0,0,0,2.649H84.478a1.34,1.34,0,0,0,0-2.649Zm0,7.952H68.551a1.34,1.34,0,0,0,0,2.649H84.478a1.34,1.34,0,0,0,0-2.649Z" transform="translate(-64 -64)"/></svg>