<svg xmlns="http://www.w3.org/2000/svg" width="34.318" height="33.51" viewBox="0 0 34.318 33.51"><defs><style>.a{fill:#2680eb;}</style></defs><path class="a" d="M17.174,33.51h-.023a.123.123,0,0,0-.033,0h-.01s-.007,0-.01,0h0a1.111,1.111,0,0,1-.69-.321l-4.676-3.92a1.094,1.094,0,0,1,1.433-1.653l2.919,2.423V15.543a1.1,1.1,0,1,1,2.2,0v14.6l2.975-2.422a1.1,1.1,0,1,1,1.381,1.708L17.9,33.289c-.023.013-.039.026-.059.038a1.1,1.1,0,0,1-.216.126,1.032,1.032,0,0,1-.442.057Zm4.634-11.519a1.189,1.189,0,0,1,1.27-1.1l4.568-.056c2.157-.11,4.464-1.322,4.464-3.858a4.437,4.437,0,0,0-1.041-2.865l-.056-.056a4.4,4.4,0,0,0-3.691-1.875h-.386A1.041,1.041,0,0,1,26,11.794a1.084,1.084,0,0,1-.219-.993A6.48,6.48,0,0,0,26,9.039a6.719,6.719,0,1,0-13.437,0v.44a.989.989,0,0,1-.445.938,1.016,1.016,0,0,1-1.044.11,6.837,6.837,0,0,0-2.592-.5c-3.416,0-6.221,2.428-6.221,5.459s1.649,5.015,4.4,5.29a.211.211,0,0,0,.167.056h5.121a1.155,1.155,0,0,1,1.162,1.1,1.122,1.122,0,0,1-1.162,1.1H6.725c-.118,0-.17-.057-.281-.057H6.332C2.477,22.6,0,19.674,0,15.487S3.747,7.826,8.43,7.826a11.311,11.311,0,0,1,1.977.223,8.92,8.92,0,0,1,17.8.99,5.89,5.89,0,0,1-.056.99,6.5,6.5,0,0,1,4.683,2.757,6.071,6.071,0,0,1,1.486,4.135c0,3.636-3.086,5.786-6.224,6.061a.479.479,0,0,1-.275.057h-.327l-4.411.054A1.189,1.189,0,0,1,21.808,21.991Z"/></svg>