<svg xmlns="http://www.w3.org/2000/svg" width="20" height="17.157" viewBox="0 0 20 17.157"><defs><style>.a{fill:#fff;}</style></defs><path class="a" d="M65.43,145.157a1.43,1.43,0,0,1-1.43-1.43v-14.3A1.43,1.43,0,0,1,65.43,128h7.531a1.43,1.43,0,0,1,1.233.705l1.266,2.154h7.11a1.43,1.43,0,0,1,1.393,1.753L81.3,144.051a1.43,1.43,0,0,1-1.393,1.106Zm17.14-13.226H68.32a.357.357,0,0,0-.348.277l-2.659,11.438a.358.358,0,0,0,.348.438h14.25a.357.357,0,0,0,.348-.277l2.659-11.438a.358.358,0,0,0-.348-.438Zm-9.609-2.86H65.43a.357.357,0,0,0-.357.357v10.516l1.855-7.98a1.43,1.43,0,0,1,1.393-1.106h5.9l-.947-1.611a.357.357,0,0,0-.3-.176h-.011Z" transform="translate(-64 -128)"/></svg>