<svg xmlns="http://www.w3.org/2000/svg" width="34.004" height="41.294" viewBox="0 0 34.004 41.294"><defs><style>.a{fill:#2680eb;}</style></defs><path class="a" d="M20300.8,9582.206l-.779-.391c-.178-.091-.375-.174-.781-.39-2.637-1.38-8.672-4.567-11.187-7.048a14.843,14.843,0,0,1-4.059-6.691v-20.226a1.44,1.44,0,0,1,1-1.383l16-5.083,16,5.083a1.421,1.421,0,0,1,1,1.383v20.226a14.713,14.713,0,0,1-4.059,6.691c-2.908,2.863-10.039,6.683-11.578,7.438l-.779.391a.9.9,0,0,1-.4.083A.828.828,0,0,1,20300.8,9582.206Zm.4-3.131s0,0,.016-.01h-.029Zm-4.387-26.389a5.735,5.735,0,0,0-1.334,3.253,5.311,5.311,0,0,0,.768,3.148,5.366,5.366,0,0,0,2.289,2.085,6.456,6.456,0,0,0,.836.313c0,.025,0,.053,0,.087v9.389a1.528,1.528,0,1,0,3.057,0v-3.639h2.588a1.538,1.538,0,0,0,1.531-1.53h-.006v-.062a1.532,1.532,0,0,0-1.529-1.53h-2.59v-2.689a5.528,5.528,0,0,0,3.959-5.139.66.66,0,0,0,.006-.107.36.36,0,0,0,0-.092,5.421,5.421,0,0,0-.951-2.979,5.707,5.707,0,0,0-2.752-2.1,4.968,4.968,0,0,0-1.713-.295A5.456,5.456,0,0,0,20296.813,9552.687Zm3.8,5.854a4.78,4.78,0,0,1-.588-.165,4.108,4.108,0,0,1-.434-.247c-.006,0-.027-.021-.053-.039a2.009,2.009,0,0,1-.238-.213c-.061-.061-.121-.13-.178-.19a1.118,1.118,0,0,0-.117-.169c-.074-.121-.135-.238-.2-.364a3.308,3.308,0,0,1-.164-.59,4.693,4.693,0,0,1,0-.62,4.567,4.567,0,0,1,.164-.59,4.225,4.225,0,0,1,.246-.434.242.242,0,0,0,.035-.052c.074-.083.143-.165.221-.239.057-.061.127-.121.186-.178a.994.994,0,0,0,.17-.117c.119-.068.24-.139.365-.2a3.937,3.937,0,0,1,.59-.164,4.678,4.678,0,0,1,.619,0,4.729,4.729,0,0,1,.59.164,4.314,4.314,0,0,1,.434.247.29.29,0,0,0,.053.039,3.212,3.212,0,0,1,.238.217c.061.057.123.126.178.187a.994.994,0,0,0,.117.169c.07.121.139.243.2.364a3.891,3.891,0,0,1,.164.6c.01.1.014.2.014.3s-.008.208-.014.308a4.427,4.427,0,0,1-.164.595,3.581,3.581,0,0,1-.248.434c0,.008-.021.025-.037.052a2.327,2.327,0,0,1-.219.238,1.478,1.478,0,0,1-.186.174.994.994,0,0,0-.17.117,4.129,4.129,0,0,1-.363.2,3.925,3.925,0,0,1-.594.165c-.1.009-.205.013-.307.013S20300.713,9558.55,20300.611,9558.541Z" transform="translate(-20283.996 -9540.995)"/></svg>