<svg xmlns="http://www.w3.org/2000/svg" width="34" height="44.199" viewBox="0 0 34 44.199"><defs><style>.a{fill:#34d0b6;}</style></defs><path class="a" d="M147.29,44.2H123.015a4.885,4.885,0,0,1-4.862-4.907V7.367a4.885,4.885,0,0,1,4.862-4.907h4.851V9.826H142.44V2.459H147.3a4.885,4.885,0,0,1,4.851,4.907V39.292A4.885,4.885,0,0,1,147.29,44.2Zm-3.638-27.007h-17a1.224,1.224,0,1,0,0,2.448h17a1.224,1.224,0,1,0,0-2.448Zm0,7.367h-17a1.224,1.224,0,1,0,0,2.448h17a1.224,1.224,0,1,0,0-2.448Zm0,7.367h-17a1.224,1.224,0,1,0,0,2.448h17a1.224,1.224,0,0,0,0-2.448ZM137.578,7.367h-4.851A2.448,2.448,0,0,1,130.3,4.907V2.459A2.437,2.437,0,0,1,132.716,0h4.862A2.448,2.448,0,0,1,140,2.459V4.907a2.437,2.437,0,0,1-2.414,2.459Z" transform="translate(-118.153)"/></svg>