<svg xmlns="http://www.w3.org/2000/svg" width="27.164" height="27.164" viewBox="0 0 27.164 27.164"><defs><style>.a{fill:#14adc4;}</style></defs><path class="a" d="M88.219,63.9H68.146A3.556,3.556,0,0,0,64.6,67.446V87.519a3.556,3.556,0,0,0,3.546,3.546H88.219a3.556,3.556,0,0,0,3.546-3.546V67.446A3.558,3.558,0,0,0,88.219,63.9ZM82.7,68.125a1.8,1.8,0,0,1,2.563,0l1.283,1.28a1.8,1.8,0,0,1,0,2.563l-1.283,1.283-3.846-3.843Zm-9.114,16.8a2.3,2.3,0,0,1-1.283.428l-4.413,1.423,1.426-4.413a2.283,2.283,0,0,1,.428-1.28v-.143l3.989,3.986Zm-2.42-5.269,8.972-8.972,3.846,3.846-8.972,8.972ZM87.1,88.532h-.012c-3.716-.03-9.833-.061-10.44-.009a1.386,1.386,0,0,1-1.486-1.183,1.341,1.341,0,0,1,1.107-1.5c.425-.07,4.07-.073,10.84-.018a1.357,1.357,0,0,1-.009,2.715Z" transform="translate(-64.6 -63.9)"/></svg>