<svg xmlns="http://www.w3.org/2000/svg" width="20" height="19.234" viewBox="0 0 20 19.234"><defs><style>.a{fill:#fff;}</style></defs><path class="a" d="M21316.924,9560.236h-3.076a3.846,3.846,0,0,1,0-7.692h12.307a3.846,3.846,0,1,1,0,7.692Zm9.23-1.539a2.308,2.308,0,1,0,0-4.615H21320a3.853,3.853,0,0,1,0,4.615Zm-10.768-6.923a.769.769,0,0,1-.547-1.315l9.23-9.23a.772.772,0,0,1,1.092,1.092l-9.23,9.23a.766.766,0,0,1-.541.224Zm5.383-3.077a2.308,2.308,0,1,1,2.309,2.308A2.308,2.308,0,0,1,21320.77,9548.7Zm1.539,0a.77.77,0,1,0,.77-.77A.769.769,0,0,0,21322.309,9548.7Zm-7.691-4.615a2.308,2.308,0,1,1,2.307,2.308A2.307,2.307,0,0,1,21314.617,9544.082Zm1.537,0a.77.77,0,1,0,.77-.77A.77.77,0,0,0,21316.154,9544.082Z" transform="translate(-21310.002 -9541.002)"/></svg>