<svg xmlns="http://www.w3.org/2000/svg" width="34.493" height="31.688" viewBox="0 0 34.493 31.688"><defs><style>.a{fill:#2680eb;}</style></defs><path class="a" d="M16.192,30.58V15.912L13.2,18.345a1.1,1.1,0,0,1-1.384-1.716l4.761-3.875.055-.038a1.094,1.094,0,0,1,.222-.128,1.08,1.08,0,0,1,.443-.055h.008q.041,0,.08,0a1.1,1.1,0,0,1,.692.323l4.7,3.936a1.1,1.1,0,0,1-1.439,1.661L18.407,16.02V30.58a1.107,1.107,0,1,1-2.214,0Zm5.73-8.491A1.19,1.19,0,0,1,23.2,20.982l4.6-.055c2.159-.111,4.484-1.329,4.484-3.875a4.451,4.451,0,0,0-1.052-2.879l-.055-.055a4.413,4.413,0,0,0-3.709-1.882h-.388a1.054,1.054,0,0,1-.941-.388,1.1,1.1,0,0,1-.221-1,6.221,6.221,0,0,0,.221-1.772,6.755,6.755,0,1,0-13.508,0v.443a.979.979,0,0,1-.443.941,1.026,1.026,0,0,1-1.052.111,6.8,6.8,0,0,0-2.6-.5c-3.432,0-6.256,2.436-6.256,5.481S3.93,20.594,6.7,20.871a.2.2,0,0,0,.166.055h5.149a1.159,1.159,0,0,1,1.163,1.107,1.124,1.124,0,0,1-1.163,1.107H6.753c-.111,0-.166-.055-.277-.055H6.366C2.49,22.7,0,19.764,0,15.557s3.765-7.7,8.47-7.7a11.556,11.556,0,0,1,1.993.221,8.963,8.963,0,0,1,17.882,1,6.02,6.02,0,0,1-.055,1,6.53,6.53,0,0,1,4.706,2.768A6.1,6.1,0,0,1,34.489,17c0,3.654-3.1,5.813-6.256,6.09a.5.5,0,0,1-.277.055h-.332L23.2,23.2A1.19,1.19,0,0,1,21.922,22.089Z" transform="translate(0.001)"/></svg>